<?xml version="1.0" encoding="UTF-8" standalone="no"?>
<!DOCTYPE svg PUBLIC "-//W3C//DTD SVG 1.1//EN" "http://www.w3.org/Graphics/SVG/1.1/DTD/svg11.dtd">
<svg version="1.1" xmlns="http://www.w3.org/2000/svg" xmlns:xlink="http://www.w3.org/1999/xlink" preserveAspectRatio="xMidYMid meet" viewBox="0 0 640 640" width="128" height="128"><defs><path d="M316.46 301.27L524.57 234.84L325.78 331.11L437.1 517.88L299.79 351.83L154.06 517.88L273.82 331.11L66.59 234.84L283.13 301.27L295.57 59.91L316.46 301.27Z" id="f1eeboeSe"></path><path d="M573.97 215.63L536.33 294.94L602.2 204.88L485.25 186.06L573.97 215.63Z" id="a3Q7F5w2G"></path><path d="M293.94 30.21L355.48 92.81L293.54 0L235.67 103.36L293.94 30.21Z" id="ap1nFM9Xu"></path><path d="M28.23 215.63L65.87 294.94L0 204.88L116.95 186.06L28.23 215.63Z" id="b20pKvHly5"></path><path d="M123.5 560.49L208.74 539.48L107.32 586L112.28 467.65L123.5 560.49Z" id="cYNjVUbh3"></path><path d="M476.52 560.49L391.29 539.48L492.71 586L487.75 467.65L476.52 560.49Z" id="a1NftmYvvY"></path></defs><g><g><g><use xlink:href="#f1eeboeSe" opacity="1" fill="#d79921" fill-opacity="1"></use></g><g><use xlink:href="#a3Q7F5w2G" opacity="1" fill="#d79921" fill-opacity="1"></use></g><g><use xlink:href="#ap1nFM9Xu" opacity="1" fill="#d79921" fill-opacity="1"></use></g><g><use xlink:href="#b20pKvHly5" opacity="1" fill="#d79921" fill-opacity="1"></use></g><g><use xlink:href="#cYNjVUbh3" opacity="1" fill="#d79921" fill-opacity="1"></use></g><g><use xlink:href="#a1NftmYvvY" opacity="1" fill="#d79921" fill-opacity="1"></use></g></g></g></svg>